<?xml version="1.0" encoding="utf-8"?>
<svg xmlns="http://www.w3.org/2000/svg" width="46" height="46" viewBox="0 0 46 46" fill="none">
  <g clip-path="url(#clip0_2810_23943)">
    <path d="M9.93483 0H15.3304C15.3487 1.82612 15.3511 3.65236 15.3376 5.47854C16.7316 5.36318 18.3267 5.54871 19.7389 5.46551C19.933 5.4541 20.202 5.45015 20.394 5.46493C20.2991 3.90234 20.3552 1.5995 20.3703 0H25.6426C25.5896 1.80707 25.6815 3.67037 25.6077 5.47813C26.4373 5.42068 27.6209 5.47714 28.4878 5.46964C28.9622 5.46551 30.2684 5.42827 30.6783 5.4629C30.624 4.61532 30.6546 3.47981 30.6575 2.61479C30.6601 1.83411 30.6275 0.751925 30.6881 0H36.0922L36.0999 3.68688C36.1 4.2262 36.1244 4.89729 36.1054 5.42072C36.927 5.56937 37.5681 5.6673 38.3013 6.10574C39.7779 6.98872 40.3542 8.30197 40.5632 9.93968C42.1841 9.87787 44.3356 9.93038 46 9.93582V15.3615C44.2433 15.2782 42.2059 15.4374 40.5162 15.3418C40.5618 15.8834 40.5603 16.5456 40.542 17.0955C40.5073 18.1377 40.602 19.2715 40.5361 20.3031C42.031 20.1969 44.4366 20.2608 46 20.2678V25.7312C44.3207 25.7202 42.1474 25.7957 40.5236 25.7118C40.5705 26.6097 40.53 27.6457 40.5429 28.5568C40.5499 29.0462 40.5766 30.2408 40.5162 30.6833C42.0484 30.5255 43.862 30.7324 45.4192 30.651C45.6078 30.6412 45.8068 30.6484 46 30.6395V36.0747C44.764 36.0954 43.5278 36.1031 42.2916 36.098C41.816 36.0977 40.9692 36.1339 40.5369 36.0663C40.4141 37.4039 39.975 38.5702 38.9204 39.4601C38.0202 40.2198 37.202 40.3782 36.0893 40.5755C36.1142 41.6243 36.1003 42.7206 36.0998 43.7724C36.0995 44.4391 36.1325 45.35 36.0902 46H30.6598L30.6574 42.6464C30.6578 41.992 30.6291 41.1538 30.6966 40.5226C30.4864 40.5329 30.2385 40.5353 30.0279 40.5291C28.5755 40.4854 27.0513 40.6055 25.6055 40.5222C25.6649 41.0321 25.635 42.0221 25.6342 42.5587L25.6399 46H20.3694C20.3595 44.819 20.3565 43.6379 20.3603 42.4569C20.3603 41.968 20.329 40.9687 20.3966 40.5288L17.2332 40.5367C16.7303 40.5402 15.7895 40.5738 15.3183 40.5188C15.369 40.9846 15.3454 41.9021 15.3452 42.3993L15.3476 46H9.92234C9.86574 45.2251 9.90123 44.0152 9.8984 43.2134C9.89584 42.4869 9.86112 41.2399 9.92454 40.5735C7.21562 40.1907 5.80427 38.8094 5.4466 36.0826C3.68598 36.0405 1.79563 36.1156 0 36.0861V30.6484C1.71138 30.7112 3.7246 30.6409 5.47598 30.6562C5.45446 30.4216 5.44687 30.1948 5.45019 29.9594C5.47018 28.5468 5.43213 27.1282 5.46093 25.7165C3.71546 25.7689 1.76343 25.7239 0 25.7306V20.2667C1.74483 20.3351 3.68388 20.2378 5.47665 20.2893C5.42337 19.8395 5.44363 18.5635 5.45109 18.0456C5.46147 17.3229 5.4046 16.0015 5.48339 15.3356C3.71757 15.4037 1.79546 15.3004 0 15.3542V9.93281C1.81762 9.94687 3.63808 9.92225 5.45545 9.94516C5.57323 8.28301 6.344 6.83051 7.83384 6.02533C8.5264 5.65108 9.13904 5.56456 9.89921 5.4373C9.86511 4.53491 9.91048 3.43313 9.89894 2.51644C9.89049 1.84795 9.86884 0.621764 9.93483 0ZM11.571 10.9126C11.3102 11.1645 11.1404 11.3246 10.9215 11.6107C10.8929 13.5375 10.8846 15.4647 10.8967 17.3917L10.8976 26.7883L10.8963 31.8372C10.8961 32.4269 10.8622 33.8972 10.9273 34.4239C11.1403 34.6544 11.3409 34.885 11.5844 35.0829C12.7687 35.14 14.0943 35.1111 15.2925 35.1109L21.3939 35.1098L29.3684 35.1092C30.8204 35.1091 32.3714 35.1352 33.8171 35.0974C34.0057 35.0987 34.2263 35.1061 34.4118 35.1006C34.6364 34.8896 34.9154 34.6057 35.085 34.3478C35.1242 32.6346 35.0986 30.8461 35.0986 29.1264L35.0982 19.9005L35.0993 14.53C35.0997 13.7243 35.138 12.3475 35.0686 11.5936C34.8489 11.3136 34.6805 11.1592 34.4193 10.9138C33.2887 10.852 31.9691 10.8823 30.825 10.8823L24.9405 10.8823L16.6944 10.8829C15.2136 10.8829 13.6523 10.856 12.1786 10.8921L11.571 10.9126Z" fill="black"/>
    <path d="M24.8168 12.877C24.8665 12.9224 24.9022 12.9756 24.9023 13.0465C24.903 14.3187 24.9442 15.614 24.9151 16.8849C24.8842 18.2365 24.9831 19.6844 24.889 21.0247C26.1923 20.9651 28.1357 20.9832 29.4341 21.0251C29.1508 21.2768 28.2378 22.6241 27.9448 23.0279L23.4925 29.21C23.0145 29.8704 21.9584 31.469 21.4189 31.9698C21.5286 29.3556 21.3277 26.456 21.4342 23.8357C19.9028 23.7847 18.1975 23.8175 16.6523 23.8167C16.7859 23.5729 16.9426 23.3542 17.1054 23.1301C18.2914 21.4979 19.5401 19.8989 20.7501 18.2846L23.7058 14.3408C23.9393 14.0345 24.5922 13.1165 24.8168 12.877Z" fill="black"/>
  </g>
  <defs>
    <clipPath id="clip0_2810_23943">
      <rect width="46" height="46" fill="white"/>
    </clipPath>
  </defs>
</svg>