<?xml version="1.0" encoding="utf-8"?>
<svg xmlns="http://www.w3.org/2000/svg" width="26" height="26" viewBox="0 0 26 26">
<path d="M2 13.0002C2 12.0797 2.74619 11.3335 3.66667 11.3335H13.1667C14.0871 11.3335 14.8333 12.0797 14.8333 13.0002C14.8333 13.9206 14.0871 14.6668 13.1667 14.6668H3.66667C2.74619 14.6668 2 13.9206 2 13.0002Z"/>
<rect x="17.3333" y="11.3335" width="3.33333" height="3.33333" rx="1.66667"/>
<path d="M7.1665 21.3337C7.1665 20.4132 7.9127 19.667 8.83317 19.667H23.3332C24.2536 19.667 24.9998 20.4132 24.9998 21.3337C24.9998 22.2541 24.2536 23.0003 23.3332 23.0003H8.83317C7.9127 23.0003 7.1665 22.2541 7.1665 21.3337Z"/>
<path d="M7.1665 4.66667C7.1665 3.74619 7.9127 3 8.83317 3H23.3332C24.2536 3 24.9998 3.74619 24.9998 4.66667C24.9998 5.58714 24.2536 6.33333 23.3332 6.33333H8.83317C7.9127 6.33333 7.1665 5.58714 7.1665 4.66667Z"/>
</svg>